<?xml version="1.0" encoding="UTF-8"?> <svg xmlns="http://www.w3.org/2000/svg" viewBox="0 0 866.45 331.17"><defs></defs><title>Resurs 1</title><g id="Lager_2" data-name="Lager 2"><g id="Lager_1-2" data-name="Lager 1"><path class="cls-1" d="M148.77,323.78a4.54,4.54,0,0,1-4.54-4.54V209.83c0-24.77-6.81-46.43-35.15-46.43-27.58,0-41.46,17.7-41.46,44.1V323.78H4.54A4.54,4.54,0,0,1,0,319.24v-298A4.54,4.54,0,0,1,3.33,16.9L67.62,0V128.72h.79c11.26-20.21,37.63-29,64.84-29,26.5,0,44.4,9.23,58.39,25.55,20.6,23.71,20.22,50.17,20.22,79.7V319.24a4.54,4.54,0,0,1-4.54,4.54Z"></path><path class="cls-1" d="M401.79,323.78a4.55,4.55,0,0,1-4.55-4.54V300.47h-.77c-11.67,22.15-39.64,30.7-63,30.7-66.45,0-108.43-51.3-108.43-115.43,0-63,43.53-115,108.43-115,23.71,0,50.15,8.94,63,30.31h.77V112.63a4.55,4.55,0,0,1,4.55-4.54h55.42a4.55,4.55,0,0,1,4.55,4.54V319.24a4.55,4.55,0,0,1-4.55,4.54Zm-59-162.84c-31.49,0-53.25,24.87-53.25,55.58,0,29.92,23.32,54.41,53.63,54.41,31.49,0,54-24.09,54-55.19C397.24,184.26,374.31,160.94,342.84,160.94Z"></path><path class="cls-1" d="M624.21,323.78a4.54,4.54,0,0,1-4.54-4.54V300.85h-.78c-11.27,23.32-32.11,29.93-59.2,29.93-23.71,0-47.81-8.16-63.35-27.2-17.48-21.77-19.42-39.65-19.42-66.46V112.63a4.54,4.54,0,0,1,4.54-4.54h55.42a4.55,4.55,0,0,1,4.55,4.54V227.4c0,24.49,5.43,43.14,34.58,43.14,30.77,0,40.17-19.05,40.17-43.92v-114a4.54,4.54,0,0,1,4.54-4.54h55.43a4.54,4.54,0,0,1,4.54,4.54V319.24a4.54,4.54,0,0,1-4.54,4.54Z"></path><path class="cls-1" d="M778.61,331.17c-43.4,0-80-22.32-87.13-66.29a4.57,4.57,0,0,1,4.54-5.22h55.22a4.69,4.69,0,0,1,4.43,3.6c3.06,10.81,12.11,16.22,23.72,16.22,9.72,0,22.55-5.44,22.55-16.71,0-15.55-17.5-20.21-29.16-24.87-9.33-3.11-18.65-6.22-28-9.72-25.65-9.33-51.29-26-51.29-56.36,0-45.08,42-71.12,83.55-71.12s75.79,20.49,82.15,62.86a4.58,4.58,0,0,1-4.55,5.16H800.5a4.47,4.47,0,0,1-4.4-3.56c-1.82-9.34-9.74-12.76-19.83-12.76-8.54,0-18.25,4.66-18.25,14.38,0,33.81,108.43,14.76,108.43,90.94C866.45,306.29,822.53,331.17,778.61,331.17Z"></path></g></g></svg>